<svg fill="none" height="128" viewBox="0 0 128 128" width="128" xmlns="http://www.w3.org/2000/svg"><g clip-rule="evenodd" fill-rule="evenodd"><path d="m64 128c35.3462 0 64-28.6537 64-64 0-35.3462-28.6538-64-64-64s-64 28.6538-64 64c0 35.3463 28.6538 64 64 64z" fill="#de5833"/><path d="m73.0002 111.75c0-.5.1227-.614-1.4666-3.782-4.224-8.4588-8.4694-20.3841-6.5387-28.0748.352-1.3973-3.9786-51.744-7.04-53.3653-3.4026-1.8133-7.5893-4.6899-11.4186-5.3299-1.9429-.3108-4.4903-.1636-6.4818.1046-.3539.0477-.3685.6839-.0303.7985 1.3074.4429 2.895 1.212 3.8306 2.3748.1771.2201-.0606.5663-.3429.5767-.8819.0327-2.4819.4024-4.5928 2.1954-.2441.2073-.0413.5924.2729.5302 4.5365-.8975 9.1696-.4553 11.8999 2.0264.1772.161.0846.45-.1465.5128-23.6941 6.439-19.0037 27.0502-12.696 52.3437 5.6184 22.5299 7.7327 29.7919 8.3994 32.0039.0645.214.2151.384.423.467 8.1563 3.248 25.9284 3.392 25.9284-2.132z" fill="#ddd"/><path d="m122.75 64c0 32.4467-26.3033 58.75-58.75 58.75s-58.75-26.3033-58.75-58.75 26.3033-58.75 58.75-58.75 58.75 26.3033 58.75 58.75zm-72.4608 51.986c-1.6235-5.016-6.1606-19.5514-10.6419-37.9209-.1493-.6121-.2984-1.2213-.4468-1.8274l-.0037-.0152c-5.4244-22.156-9.8548-40.2524 14.427-45.9375.222-.052.3306-.3174.1836-.4917-2.786-3.3051-8.0051-4.3884-14.6045-2.1117-.2707.0934-.5057-.1796-.3376-.4113 1.2941-1.7838 3.8231-3.1552 5.0715-3.7565.2581-.1242.2424-.5021-.0309-.5876-.8167-.2557-2.2071-.6469-3.7712-.8993-.37-.0597-.4034-.6939-.0319-.7439 9.3558-1.2587 19.1255 1.5501 24.028 7.7257.0462.0582.1129.0988.1855.1144 17.9528 3.8554 19.2383 32.235 17.1702 33.5276-.4077.2548-1.7145.1086-3.4381-.0843-6.9854-.7815-20.8179-2.3292-9.4015 18.9473.1127.2102-.0365.4883-.2722.525-6.4158.9976 1.7553 21.0343 7.8125 34.3233 23.8148-5.52 41.5628-26.8685 41.5628-52.362 0-29.6853-24.0647-53.75-53.75-53.75s-53.75 24.0647-53.75 53.75c0 24.9468 16.9952 45.924 40.0392 51.986z" fill="#fff"/></g><path d="m84.2802 90.698c-1.3667-.6333-6.6217 3.1353-10.1095 6.0282-.729-1.0312-2.1034-1.7809-5.2037-1.2419-2.7135.4719-4.2114 1.1261-4.8798 2.2541-4.2829-1.6238-11.4881-4.1298-13.2287-1.7096-1.9028 2.6455.4755 15.1602 3.0026 16.7852 1.3195.849 7.6306-3.208 10.9263-6.005.5317.749 1.3878 1.178 3.1477 1.137 2.6615-.062 6.9785-.681 7.6485-1.921.0407-.075.0757-.164.1056-.266 3.3874 1.266 9.3493 2.606 10.6813 2.406 3.4709-.521-.4835-16.7225-2.0903-17.467z" fill="#3ca82b"/><path d="m74.4902 97.0965c.1437.2563.2592.5266.3575.8014.4829 1.3506 1.2697 5.6471.6747 6.7081-.595 1.062-4.4594 1.574-6.8433 1.615s-2.9206-.831-3.4035-2.181c-.3863-1.081-.5765-3.621-.5719-5.0753-.0977-2.1574.6906-2.9159 4.334-3.5055 2.6963-.4363 4.1218.0711 4.9447.9396 3.8278-2.857 10.2147-6.8888 10.8376-6.152 3.1061 3.6742 3.4987 12.4202 2.8261 15.9392-.2199 1.151-10.5049-1.139-10.5049-2.38 0-5.1517-1.3367-6.5649-2.651-6.7095z" fill="#4cba3c"/><path d="m51.9605 95.4878c.8423-1.3332 7.6734.3247 11.4232 1.9935 0 0-.7706 3.4907.4562 7.6037.3588 1.203-8.6269 6.558-9.7998 5.637-1.3555-1.065-3.8502-12.432-2.0796-15.2342z" fill="#4cba3c"/><path clip-rule="evenodd" d="m55.2689 68.4065c.5527-2.4033 3.1273-6.9321 12.3211-6.8221 4.648-.0194 10.4216-.002 14.2494-.4368 5.6892-.6463 9.9122-2.0224 12.7262-3.095 3.9798-1.5184 5.3921-1.1798 5.8874-.2712.544.9982-.097 2.7219-1.4878 4.3086-2.6562 3.0309-7.4313 5.3794-15.8649 6.0765-8.4335.697-14.0207-1.5652-16.4257 2.1179-1.0373 1.5886-.2354 5.3325 7.9204 6.5114 11.0209 1.5906 20.0722-1.9165 21.1906.2016s-5.3239 6.4275-16.3627 6.5178c-11.0387.0902-17.9337-3.8649-20.3788-5.8309-3.1022-2.4943-4.4905-6.1321-3.7752-9.2778z" fill="#fc3" fill-rule="evenodd"/><g fill="#14307e" opacity=".8"><path d="m69.327 42.127c.6157-1.0082 1.9811-1.7864 4.2156-1.7864 2.2344 0 3.2856.8891 4.0133 1.8806.1481.2017-.0762.4391-.3058.3398-.0552-.0239-.1112-.0483-.168-.0731-.8172-.3569-1.8206-.7952-3.5395-.8196-1.8385-.0262-2.9977.4343-3.7278.8311-.246.1338-.6337-.1334-.4878-.3724z"/><path d="m44.1708 43.4169c2.1697-.9067 3.8749-.7895 5.0805-.5043.2538.06.4302-.2131.2272-.3769-.9357-.7547-3.0298-1.6916-5.761-.6732-2.4364.9085-3.5847 2.796-3.5915 4.0371-.0016.2924.6001.3172.7557.0696.4205-.6689 1.1195-1.6456 3.2891-2.5523z"/><g clip-rule="evenodd" fill-rule="evenodd"><path d="m75.4405 55.9197c-1.9181 0-3.474-1.5516-3.474-3.4612 0-1.9097 1.5559-3.4612 3.474-3.4612 1.9182 0 3.4741 1.5515 3.4741 3.4612 0 1.9096-1.5559 3.4612-3.4741 3.4612zm2.4468-4.6078c0-.4945-.405-.8952-.8994-.8952-.4945 0-.8952.4007-.8994.8952 0 .4944.4049.8951.8994.8951.4987 0 .8994-.4007.8994-.8951z"/><path d="m52.4234 54.8539c0 2.2294-1.8116 4.0367-4.0494 4.0367-2.2336 0-4.0495-1.8073-4.0495-4.0367 0-2.2293 1.8159-4.0367 4.0495-4.0367 2.2335 0 4.0494 1.8074 4.0494 4.0367zm-1.1935-1.3384c0-.5755-.4689-1.0444-1.0486-1.0444-.5755 0-1.0443.4647-1.0486 1.0444 0 .5754.4689 1.0443 1.0486 1.0443s1.0486-.4689 1.0486-1.0443z"/></g></g></svg>